<?xml version="1.0" encoding="UTF-8"?>
<svg id="Layer_1" data-name="Layer 1" xmlns="http://www.w3.org/2000/svg" viewBox="0 0 1500 1500">
  <defs>
    <style>
      .cls-1 {
        fill: #010101;
      }
    </style>
  </defs>
  <path class="cls-1" d="M701.71,1275h2.59c43.6,0,84.41,21.68,108.62,57.94,67.23,100.71,181.89,167.05,312.07,167.06,206.81,0,375.02-168.2,375.01-375.01,0-130.18-66.35-244.84-167.06-312.07-36.27-24.21-57.94-65.02-57.94-108.62v-2.58c0-38.45,17.17-74.64,46.24-99.8,63.55-55.01,103.76-136.26,103.76-226.9,0-166.07-133.93-300.01-300.01-300-90.65,0-171.9,40.21-226.9,103.76-25.16,29.07-61.36,46.24-99.8,46.24h-2.59c-43.6,0-84.41-21.68-108.62-57.94C619.85,66.35,505.19,0,375.02,0,168.2,0,0,168.2,0,375.01c0,130.18,66.35,244.84,167.06,312.07,36.27,24.21,57.94,65.02,57.94,108.62v2.59c0,38.45-17.17,74.64-46.24,99.8-63.55,55.01-103.76,136.26-103.76,226.9,0,166.07,133.93,300.01,300,300.01,90.65,0,171.9-40.21,226.9-103.76,25.16-29.07,61.36-46.24,99.8-46.24ZM525,797.1h0c0-44.49,22.23-85.98,59.14-110.83,40.28-27.12,75.01-61.85,102.13-102.13,24.85-36.91,66.33-59.14,110.83-59.14h0c38.91,0,75.72,17.12,101.22,46.51,9.33,10.75,19.41,20.84,30.17,30.17,29.39,25.5,46.51,62.31,46.51,101.22h0c0,44.49-22.23,85.98-59.14,110.83-40.28,27.12-75.02,61.85-102.13,102.14-24.85,36.91-66.33,59.14-110.82,59.14h0c-38.91,0-75.72-17.12-101.22-46.51-9.33-10.75-19.41-20.84-30.17-30.17-29.39-25.5-46.51-62.31-46.51-101.22Z"/>
</svg>