<?xml version="1.0" encoding="UTF-8"?>
<svg id="Layer_1" data-name="Layer 1" xmlns="http://www.w3.org/2000/svg" viewBox="0 0 5360.29 1280">
  <defs>
    <style>
      .cls-1 {
        fill: #010101;
      }
    </style>
  </defs>
  <path class="cls-1" d="M3879.96,80v760h.07c0,110.46-89.54,200-200,200h-80c-110.46,0-200-89.54-200-200h0s-.07,0-.07,0V80h-319.96v800c.12,319.88,280.03,399.83,440,399.83v.17h240v-.17c159.97,0,439.88-79.94,440-399.83V80s-320.04,0-320.04,0Z"/>
  <path class="cls-1" d="M3039.71,520v-240h-320V0h-320v960c0,160,80,319.83,320,319.83l120,.17h200v-260h-320v-500h320Z"/>
  <path class="cls-1" d="M1560,448.77v-8.77c0-66.27,53.73-120,120-120h200c88.37,0,160,71.63,160,160v40h320v-80c0-280-280-360-440-360h-240c-160,0-440,80-440,360v21.38c0,128.48,87.44,240.48,212.09,271.64l557.61,139.4c17.81,4.45,30.3,20.45,30.3,38.81v8.77c0,66.27-53.73,120-120,120h-200c-88.37,0-160-71.63-160-160v-40h-320v80c0,280,280.03,359.83,440,359.83v.17h240v-.17c159.97,0,440-79.83,440-359.83v-21.38c0-128.48-87.44-240.48-212.09-271.64l-557.61-139.4c-17.81-4.45-30.3-20.45-30.3-38.81Z"/>
  <path class="cls-1" d="M4560.29,448.77v-8.77c0-66.27,53.73-120,120-120h200c88.37,0,160,71.63,160,160v40h320v-80c0-280-280-360-440-360h-240c-160,0-440,80-440,360v21.38c0,128.48,87.44,240.48,212.09,271.64l557.61,139.4c17.81,4.45,30.3,20.45,30.3,38.81v8.77c0,66.27-53.73,120-120,120h-200c-88.37,0-160-71.63-160-160v-40h-320v80c0,280,280.03,359.83,440,359.83v.17h240v-.17c159.97,0,440-79.83,440-359.83v-21.38c0-128.48-87.44-240.48-212.09-271.64l-557.61-139.4c-17.81-4.45-30.3-20.45-30.3-38.81Z"/>
  <path class="cls-1" d="M880,840h0c0,110.46-89.54,200-200,200h-160c-110.46,0-200-89.54-200-200h0v-80h880l.29-200c0-320.22-320.13-480.35-480.2-480.35h-240.1C320,79.65,0,240,0,560v200l3.31-.78c.03.39.06.78.1,1.16l-3.41-.39v40c0,320,320,480,480,480h240c159.03,0,476.13-157.83,479.95-434.93.03-1.69.05-3.38.05-5.07h-320ZM320,416c0-53.02,42.98-96,96-96h368c53.02,0,96,42.98,96,96v10.82c0,53.02-42.98,96-96,96h-368c-53.02,0-96-42.98-96-96v-10.82Z"/>
</svg>